/* XPM */
static xpm_string_t A_xpm[] = {
"29 29 6 1",
" 	c #FF00F0",
".	c #000000",
"+	c #030002",
"@	c #240022",
"#	c #260023",
"$	c #160015",
"                             ",
"       ................      ",
"       ................      ",
"       ................      ",
"       ................      ",
"       ................      ",
"       ................      ",
" ......                +.... ",
" ......                @.... ",
" ......                @.... ",
" ......                #.... ",
" ......                +.... ",
" ........................... ",
" ........................... ",
" ........................... ",
" ........................... ",
" ........................... ",
" .....$                +.... ",
" ......                ..... ",
" ......                ..... ",
" ......                ..... ",
" ......                ..... ",
" ......                ..... ",
" ......                ..... ",
" ......                ..... ",
" ......                ..... ",
" ......                ..... ",
" ......                ..... ",
" ......                ..... "};
