/* XPM */
static xpm_string_t arrow_xpm[] = {
"36 33 2 1",
" 	c #FF00F0",
".	c #000000",
"                                    ",
"                                    ",
"  ..                                ",
"  ....                              ",
"   .....                            ",
"   .......                          ",
"    .........                       ",
"    ...........                     ",
"     ............                   ",
"      .............                 ",
"      ................              ",
"       .................            ",
"       ...................          ",
"        ....................        ",
"        ......................      ",
"         .......................    ",
"         .........................  ",
"         .......................    ",
"        ......................      ",
"        ....................        ",
"       ...................          ",
"       ................             ",
"      ...............               ",
"     ..............                 ",
"     ............                   ",
"    ..........                      ",
"    ........                        ",
"   .......                          ",
"   .....                            ",
"  ....                              ",
"  ..                                ",
"                                    ",
"                                    "};
