/* XPM */
static xpm_string_t bush_xpm[] = {
"100 57 105 2",
"  	c #FF00F0",
". 	c #006500",
"+ 	c #006400",
"@ 	c #006600",
"# 	c #006900",
"$ 	c #007000",
"% 	c #007D00",
"& 	c #008B00",
"* 	c #009500",
"= 	c #009C00",
"- 	c #009900",
"; 	c #008C00",
"> 	c #008000",
", 	c #007900",
"' 	c #007100",
") 	c #006B00",
"! 	c #006C00",
"~ 	c #008200",
"{ 	c #009B00",
"] 	c #009A00",
"^ 	c #009600",
"/ 	c #008500",
"( 	c #008400",
"_ 	c #007300",
": 	c #006800",
"< 	c #008900",
"[ 	c #008600",
"} 	c #007600",
"| 	c #006700",
"1 	c #008E00",
"2 	c #006A00",
"3 	c #008A00",
"4 	c #008D00",
"5 	c #009800",
"6 	c #007F00",
"7 	c #007C00",
"8 	c #009000",
"9 	c #006300",
"0 	c #009100",
"a 	c #006E00",
"b 	c #007200",
"c 	c #006F00",
"d 	c #008100",
"e 	c #008700",
"f 	c #008300",
"g 	c #009200",
"h 	c #007500",
"i 	c #008F00",
"j 	c #007B00",
"k 	c #007700",
"l 	c #006D00",
"m 	c #009400",
"n 	c #007E00",
"o 	c #009300",
"p 	c #008800",
"q 	c #007A00",
"r 	c #009700",
"s 	c #009D00",
"t 	c #007400",
"u 	c #007800",
"v 	c #666621",
"w 	c #056602",
"x 	c #2F6610",
"y 	c #906630",
"z 	c #9A6633",
"A 	c #956632",
"B 	c #0A6603",
"C 	c #076602",
"D 	c #59661E",
"E 	c #8B662E",
"F 	c #9C6634",
"G 	c #996633",
"H 	c #976632",
"I 	c #436616",
"J 	c #584D1D",
"K 	c #7F512A",
"L 	c #9B6734",
"M 	c #9E6735",
"N 	c #5E531F",
"O 	c #0D6404",
"P 	c #754E27",
"Q 	c #906030",
"R 	c #6A4723",
"S 	c #714626",
"T 	c #704A25",
"U 	c #9B6834",
"V 	c #9A6733",
"W 	c #734C26",
"X 	c #6C4824",
"Y 	c #6D4924",
"Z 	c #8D5E2F",
"` 	c #916030",
" .	c #6B4724",
"..	c #704B25",
"+.	c #976532",
"@.	c #936231",
"#.	c #7F552A",
"$.	c #694623",
"%.	c #744E27",
"&.	c #986533",
"*.	c #956431",
"=.	c #6B4824",
"-.	c #6C4823",
";.	c #6A4623",
">.	c #80552B",
"                                                                          . + + + @ # @ . + . .                                                                                                         ",
"                                                                    . . $ % & * = = = = - ; > , ' ) . .                                                                                                 ",
"                                                                . ! ~ { ] - - - - - - - - - ^ / ( / / _ : @                                                                                             ",
"                                                            . : < { - - - - - - - - - - - - - ] / ( ( ( [ } | @                                                                                         ",
"                                                          @ } { - - - - - - - - - - - - - - - - ] / ( ( ( ( ( # @                                                                                       ",
"                                                        . / - - - - - - - - - - - - - - - - - - - 1 ( ( ( ( ( ( $ @           @ @ @ . # ) ) ) 2 . . @ @                                                 ",
"                                                      @ 3 - - - - - - - - - - - - - - - - - - - - ] [ ( ( ( ( ( ( ' @   @ + $ 4 ^ 5 - - - - - - - 5 ^ 6 @ @ @                                           ",
"                                                    @ 7 - - - - - - - - - - - - - - - - - - - - - - 8 ( ( ( ( ( ( ( : 9 / ^ ] - - - - - - - - - - - - - 0 > $ . @                                       ",
"                              @ . + : a b _ _ _ c ) 9 - - - - - - - - - - - - - - - - - - - - - - - ] [ ( ( ( ( ( ( * 5 - - - - - - - - - - - - - - - - - 8 / > 2 @                                     ",
"                          . @ d e < [ f ( ( / / / / g - - - - - - - - - - - - - - - - - - - - - - - - 0 [ [ [ [ < - - - - - - - - - - - - - - - - - - - - - [ ( / } .                                   ",
"                      + a < = - - ] ] - * 0 4 e f ( 1 - - - - - - - - - - - - - - - - - - - - - - - - - ] ] ] ] ] - - - - - - - - - - - - - - - - - - - - - ^ ( ( / , .                                 ",
"                  @ : e = - - - - - - - - - - ] 5 4 & - - - - - - - - - - - - - - - - - - - - - - - - - - - - - - - - - - - - - - - - - - - - - - - - - - - - ( ( ( / _ .                               ",
"                . $ ] - - - - - - - - - - - - - - - ] - - - - - - - - - - - - - - - - - - - - - - - - - - - - - - - - - - - - - - - - - - - - - - - - - - - - / ( ( ( [ #                               ",
"              @ h { - - - - - - - - - - - - - - - - - - - - - - - - - - - - - - - - - - - - - - - - - - - - - - - - - - - - - - - - - - - - - - - - - - - - - i ( ( ( ( j .                             ",
"            @ _ ] - - - - - - - - - - - - - - - - - - - - - - - - - - - - - - - - - - - - - - - - - - - - - - - - - - - - - - - - - - - - - - - - - - - - - - ] ( ( ( ( [ |                             ",
"            @ - - - - - - - - - - - - - - - - - - - - - - - - - - - - - - - - - - - - - - - - - - - - - - - - - - - - - - - - - - - - - - - - - - - - - - - - - / ( ( ( ( k @                           ",
"          @ * - - - - - - - - - - - - - - - - - - - - - - - - - - - - - - - - - - - - - - - - - - - - - - - - - - - - - - - - - - - - - - - - - - - - - - - - - ; ( ( ( ( 6 .                           ",
"          ' - - - - - - - - - - - - - - - - - - - - - - - - - - - - - - - - - - - - - - - - - - - - - - - - - - - - - - - - - - - - - - - - - - - - - - - - - - 5 i ( ( ( / +                           ",
"        @ * - - - - - - - - - - - - - - - - - - - - - - - - - - - - - - - - - - - - - - - - - - - - - - - - - - - - - - - - - - - - - - - - - - - - - - - - - - - - - ^ 1 ( l                           ",
"        | - - - - - - - - - - - - - - - - - - - - - - - - - - - - - - - - - - - - - - - - - - - - - - - - - - - - - - - - - - - - - - - - - - - - - - - - - - - - - - - - ] ~ 9 .                       ",
"        # - - - - - - - - - - - - - - - - - - - - - - - - - - - - - - - - - - - - - - - - - - - - - - - - - - - - - - - - - - - - - - - - - - - - - - - - - - - - - - - - - ] m f ) .                   ",
"        _ - - - - - - - - - - - - - - - - - - - - - - - - - - - - - - - - - - - - - - - - - - - - - - - - - - - - - - - - - - - - - - - - - - - - - - - - - - - - - - - - - - - - m n a .               ",
"      @ h - - - - - - - - - - - - - - - - - - - - - - - - - - - - - - - - - - - - - - - - - - - - - - - - - - - - - - - - - - - - - - - - - - - - - - - - - - - - - - - - - - - - - 0 / 7 | .           ",
"        ' - - - - - - - - - - - - - - - - - - - - - - - - - - - - - - - - - - - - - - - - - - - - - - - - - - - - - - - - - - - - - - - - - - - - - - - - - - - - - - - - - - - - - - < ( / 2 @         ",
"        : - - - - - - - - - - - - - - - - - - - - - - - - - - - - - - - - - - - - - - - - - - - - - - ^ - - - - - - - - - - - - - - - - - - - - - - - - - - - - - - - - - - - - - - - ] ( ( [ l @       ",
"        | - - - - - - - - - - - - - - - - - - - - - - - - - - - - - - - - - - - - - - - - - - - - - o o - - - - - - - - - - - - - - - - - - - - - - - - - - - - - - - - - - - - - - - - p ( ( / 2 .     ",
"        @ o - - - - - - - - - - - - - - - - - - - - - - - - - - - - - - - - - - - - - - - - - - - ] e o - - - - - - - - - - - - - - - - - - - - - - - - - - - - - - - - - - - - - - - - p ( ( ( ~ +     ",
"          ! - - - - - - - - - - - - - - - - - - - - - - - - - - - - - - - - - - - - - - - - - - - 8 f o - - - - - - - - - - - - - - - - - - - - - - - - - - - - - - - - - - - - - - - - p ( ( ( ( q @   ",
"          @ o - - - - - - - - - - - - - - - - - - - - - - - - - - - - - - - - - - - - - - - - - 5 ( ( o - - - - - - - - - - - - - - - - - - - - - - - - - - - - - - - - - - - - - - - - p ( ( ( ( f +   ",
"            | 5 - - - - - - - - - - - - - - - - - - - - - - - - - - - - - - - - - - - - - - - ] / ( ( o - - - - - - - - - - - - - - - - - - - - - - - - - - - - - - - - - - - - - - - - p ( ( ( ( ( '   ",
"            @ ' - - - - - - - - - - - - - - - - - - - - - - - - - - - - - - - - - - - - - - ] p ( ( ( o - - - - - - - - - - - - - - - - - - - - - - - - - - - - - - - - - - - - - - - - p ( ( ( ( ( n @ ",
"              9 1 - - - - - - - - - - - - - - - - - - - - - - - - - - - - - - - - - - - - r [ ( ( ( ( m - - - - - - - - - - - - - - - - - - - - - - - - - - - - - - - - - - - - - - - - p ( ( ( ( ( ~ @ ",
"          . ' m ] - - - - - - - - - - - - - - - - - - - - - - - - - - - - - - - - - - - o f ( ( ( ( ( - - - - - - - - - - - - - - - - - - - - - - - - - - - - - - - - - - - - - - - - - p ( ( ( ( ( ~ @ ",
"        @ f ] - - - - - - - - - - - - - - - - - - - - - - - - - - - - - - - - - - - - 4 f ( ( ( ( ( * - - - - - - - - - - - - - - - - - - - - - - - - - - - - - - - - - - - - - - - - - p ( ( ( ( ( ~ @ ",
"      @ 0 - - - - - - - - - - - - - - - - - - - - - - - - - - - - - - - - - - - - - - & ( ( ( ( ( o - - - - - - - - - - - - - - - - - - - - - - - - - - - - - - - - - - - - - - - - - ] / ( ( ( ( ( 6 @ ",
"    @ i - - - - - - - - - - - - - - - - - - - - - - - - - - - - - - - - - - - - - - - - r ( / 1 - - - - - - - - - - - - - - - - - - - - - - - - - - - - - - - - - - - - - - - - - - - m ( ( ( ( ( ( _   ",
"  . j - - - - - - - - - - - - - - - - - - - - - - - - - - - - - - - - - - - - - - - - - - - - - - - - - - - - - - - - - - - - - - - - - - - - - - - - - - - - - - - - - - - - - - - - e ( ( ( ( ( ( .   ",
"  2 { - - - - - - - - - - - - - - - - - - - - - - - - - - - - - - - - - - - - - - - - - - - - - - - - - - - - - - - - - - - - - - - - - - - - - - - - - - - - - - - - - - - - - - - o ( ( ( ( ( ( % @   ",
". n - - - - - - - - - - - - - - - - - - - - - - - - - - - - - - - - - - - - - - - - - - - - - - - - - - - - - - - - - - - - - - - - - - - - - - - - - - - - - - - - - - - - - - - * ( ( ( ( ( ( f @     ",
"+ m - - - - - - - - - - - - - - - - - - - - - - - - - - - - - - - - - - - - - - - - - - - - - - - - - - - - - - - - - - - - - - - - - - - - - - - - - - - - - - - - - - - - - ] & ( ( ( ( ( ( [ a .     ",
"@ s - - - - - - - - - - - - - - - - - - - - - - - - - - - - - - - - - - - - - - - - - - - - - - - - - - - - - - - - - - - - - - - - - - - - - - - - - - - - - - - - - - - ] 0 / ( ( ( ( ( ( [ ' .       ",
"2 = - - - - - - - - - - - - - - - - - - - - - - - - - - - - - - - - - - - - - - - - - - - - - - - - - - - - - - - - - - - - - - - - - - - - - - - - - - - - - - - - - - ^ p f ( ( ( ( ( ( / c .         ",
"# = - - - - - - - - - - - - - - - - - - - - - - - - - - - - - - - - - - - - - - - - - - - - - - - - - - - - - - - - - - - - - - - - - - - - - - - - - - - - - - - - - 1 f ( ( ( ( ( ( / 6 : @           ",
"+ { - - - - - - - - - - - - - - - - - - - - - - - - - - - - - - - - - - - - - - - - - - - - - - - - - - - - - - - - - - - - - - - - - - - - - - - - - - - - - - - r [ ( ( ( ( ( ( / ~ b .               ",
"+ 3 - - - - - - - - - - - - - - - - - - - - - - * ( 5 - - - - - - - - - - - - - - - - - - - - - - - - - - - - - - - - - - - - - - - - - - - - - - - - - - - - - o ( ( ( ( ( ( ( > $ . @                 ",
"  t ] - - - - - - - - - - - - - - - - - - - 5 p ( ( / - - - - - - - - - - - - - - - - - - - - - - - - - - - - - - - - - - - - - - - - - - - - - - - - - - - - 3 ( ( f ~ d u ! . @                       ",
"  . ^ - - - - - - - - - - - - - - - - - - 1 ( ( ( ( ( < - - - - - - - - - - - - - - - - - - r : $ - - - - - - - - - - - - - - - - - - - - - - - - - - - - 5 / ( ( / : @ @ @                             ",
"    l { - - - - - - - - - - - - - - - r / ( ( ( ( ( ( ( | u ] - - - - - - - - - - - - - - k @ v w u ] - - - - - - - - - - - - - - - - - - - - - - - - - & ( ( ( [ # @                                   ",
"    @ t ] - - - - - - - - - - - - ] & ( ( ( ( ( ( ( / :   @ | ' 1 = ] - - - - - ] = i ' | x y z A B l ] ] ] - - - - - - - - - - - - - - - - - - - - & / ( ( ( ~ : .                                     ",
"      . _ { - - - - - - - - - ] o [ ( ( ( ( ( ( ( ( # @         . | ! $ b b b ' l : C D E F G G G H I : ( p p p < & 1 0 o ^ ^ ^ ^ ^ ^ ^ ^ ^ o & e ( ( ( ( / c .                                         ",
"        @ ! 1 { ] ] ] ] ] - 8 p ( ( ( ( ( ( ( / , @ @                             J K L G G G G G G M N O # } / ( ( ( ( f f f f f f f f f f f ( ( ( / f b | .                                           ",
"            + ' ~ e / / / f ( ( ( ( ( ( ( [ n l .                                   P L G G G G G G Q R S   . @ $ j f / / ( ( ( ( ( ( ( ( ( / [ ~ u a . @                                               ",
"              @ + l u 6 ( / / / / / ( 6 } 2 . @                                     T U G G G G G V W X X       @ . + # ' } , j j j j j u t c : + .                                                     ",
"                    @ . + : 2 2 2 | + . @                                         Y Z G V z V G G `  .X                   @ @ . . . . . @ @                                                             ",
"                                                                              X ..+.G @.#.$.%.Q &.*.=.X X X                                                                                             ",
"                                                                        -.X X =.%.%.X =.X     X ;.>.#.X X X X                                                                                           ",
"                                                                                                  X X X X X X X                                                                                         "};
