/* XPM */
static xpm_string_t cursor_xpm[] = {
"17 21 53 1",
" 	c #000000",
".	c #FF00F0",
"+	c #090A0A",
"@	c #151B15",
"#	c #0F0F0F",
"$	c #888888",
"%	c #9EA29E",
"&	c #081309",
"*	c #AEAEAE",
"=	c #FFFFFF",
"-	c #A6A5A6",
";	c #251C25",
">	c #A2A2A2",
",	c #B7B6B7",
"'	c #D5D5D5",
")	c #656765",
"!	c #F7F7F7",
"~	c #7D7C7D",
"{	c #A7A6A7",
"]	c #D6D6D6",
"^	c #F4F4F4",
"/	c #727272",
"(	c #071008",
"_	c #030003",
":	c #F9F9F9",
"<	c #A8A9A8",
"[	c #1D1E1D",
"}	c #DADADA",
"|	c #ECECEC",
"1	c #B9B9B9",
"2	c #FEFEFE",
"3	c #CCCBCC",
"4	c #999899",
"5	c #FCFCFC",
"6	c #F1F1F1",
"7	c #A4A4A4",
"8	c #FAF9FA",
"9	c #232123",
"0	c #8E8D8E",
"a	c #D4D4D4",
"b	c #CCCECD",
"c	c #AAA8A9",
"d	c #ECF0EC",
"e	c #B1B0B1",
"f	c #C6C3C6",
"g	c #7D787D",
"h	c #D4D2D4",
"i	c #081C09",
"j	c #767676",
"k	c #FBFBFB",
"l	c #D6D3D6",
"m	c #545554",
"n	c #BBBBBB",
" ................",
" +...............",
" @# .............",
" $%& ............",
" *=-; ...........",
" >==,; ..........",
" >===') .........",
" >====!~  .......",
" >======{; ......",
" >=======]; .....",
" >========^/(_...",
" >=========:<[ ..",
" >===========}   ",
" >======|1       ",
" >==23456~ ......",
" 7=8~;90ab ......",
" cd    ;e=f  ....",
" ;g .. ;~'h~ ....",
"   .... ijkl~ ...",
".......  mn~  ...",
".........    ...."};
