/* XPM */
static xpm_string_t H_xpm[] = {
"29 29 2 1",
" 	c #000000",
".	c #FF00F0",
"      ..................     ",
"      ..................     ",
"      ..................     ",
"      ..................     ",
"      ..................     ",
"      ..................     ",
"      ..................     ",
"      ..................     ",
"      ..................     ",
"      ..................     ",
"      ..................     ",
"                             ",
"                             ",
"                             ",
"                             ",
"                             ",
"                             ",
"      ..................     ",
"      ..................     ",
"      ..................     ",
"      ..................     ",
"      ..................     ",
"      ..................     ",
"      ..................     ",
"      ..................     ",
"      ..................     ",
"      ..................     ",
"      ..................     ",
"      ..................     "};
