/* XPM */
static xpm_string_t hand_xpm[] = {
"17 21 42 1",
" 	c #FF00F0",
".	c #000000",
"+	c #2B2B2B",
"@	c #FFFFFF",
"#	c #333333",
"$	c #A4A4A4",
"%	c #848484",
"&	c #FCFCFC",
"*	c #434343",
"=	c #838383",
"-	c #FAFAFA",
";	c #F4F4F4",
">	c #A3A3A3",
",	c #F2F2F2",
"'	c #B3B3B3",
")	c #CDCDCD",
"!	c #BBBBBB",
"~	c #C0C0C0",
"{	c #CECECE",
"]	c #EFEFEF",
"^	c #C3C3C3",
"/	c #3D3D3D",
"(	c #E1E1E1",
"_	c #F5F5F5",
":	c #E3E3E3",
"<	c #9C9C9C",
"[	c #E2E2E2",
"}	c #B7B7B7",
"|	c #9A9A9A",
"1	c #515151",
"2	c #929292",
"3	c #5B5B5B",
"4	c #EDEDED",
"5	c #8A8A8A",
"6	c #E6E6E6",
"7	c #666666",
"8	c #E5E5E5",
"9	c #ECECEC",
"0	c #6F6F6F",
"a	c #FEFEFE",
"b	c #262626",
"c	c #272727",
"     .+.         ",
"    .+@+.        ",
"    .+@+.        ",
"    .+@+.        ",
"    .+@+...      ",
"    .+@+#$....   ",
"    .+@+%&+*$... ",
"    .+@+=-+$;+$. ",
" ....+@+%-+>,+'+.",
".+++.+@)!&~{]+^$.",
"./@(++@@@@@@_+:$.",
" .<@[}@@@@@@@@@$.",
" ..|@@@@@@@@@@@$.",
"  .1@@@@@@@@@@@$.",
"  ..2@@@@@@@@@@$.",
"   .3@@@@@@@@@4$.",
"   ..5@@@@@@@@6*.",
"    .7@@@@@@@@8*.",
"     .%@@@@@@9*. ",
"     .0@&&&&a6*. ",
"     ..bbccccb.. "};
