/* XPM */
static xpm_string_t L_xpm[] = {
"29 29 2 1",
" 	c #000000",
".	c #FF00F0",
"      .......................",
"      .......................",
"      .......................",
"      .......................",
"      .......................",
"      .......................",
"      .......................",
"      .......................",
"      .......................",
"      .......................",
"      .......................",
"      .......................",
"      .......................",
"      .......................",
"      .......................",
"      .......................",
"      .......................",
"      .......................",
"      .......................",
"      .......................",
"      .......................",
"      .......................",
"      .......................",
"                             ",
"                             ",
"                             ",
"                             ",
"                             ",
"                             "};
