/* XPM */
static xpm_string_t moon_xpm[] = {
"100 110 8 1",
" 	c #FF00F0",
".	c #111432",
"+	c #475159",
"@	c #788997",
"#	c #ABC5D8",
"$	c #CAE8FF",
"%	c #FFFFFF",
"&	c #00007B",
"                                                                                                    ",
"                                           ...+@##$$$$$$$$$$##++..                                  ",
"                                         ..@#$$$$$$$$$$$$$$$$$$$##+..                               ",
"                                     .+$$$$$$$$$$$$$$$$$$$$$$$$$$$$$.                               ",
"                                 .+@$$$$$$$$$$$$$$$$$$$$$$$$$$$$$#.                                 ",
"                                .@$$$$$$$$$$$$$$$$$$$$$$$$$$$$$$#+                                  ",
"                             .+$$$$$$$$$$$$$$$$$$$$$$$$$$$$$$$#+                                    ",
"                            .@$$$$$$$$$$$$$$$$$$$$$$$$$$$$$$$$+.                                    ",
"                          .$$$$$$$$$$$$$$$$$$$$$$$$$$$$$$$$$$+                                      ",
"                         +#$$$$$$$$$$$$$$$$$$$$$$$$$$$$$$$$$@                                       ",
"                       .#$$$$$$$$$$#..@$$$$$$$$$$$$$@##@+@$.                                        ",
"                      #$$$$$$$$$$@@$$$$$$$$$$$$$$$$$$$$$$#.                                         ",
"                    ..$$$$$$$$$$++$$$$$#@++$$$$$@@#$$$$$$.                                          ",
"                   .$$$$$$$$$$$+$$$$$$+%%%%$+#+#%%%#+#$$+  .                                        ",
"                  .@$$$$$$$$$$$+$$$$$@#%%%%%%.%%%%%%@+$@.                                           ",
"                 .$$$$$$$$$$$$.$$$$$+$%%%%%%%%#%%%%%%%@                                             ",
"                 #$$$$$$$$$$$@+$$$$#$%%%%%%%%%+%%%%%%%.                                             ",
"               .$$$$$$$$$$$$$$$$$$@+%%%%%%%%%%#+%%%%%%%                                             ",
"              .$$$$$$$$$$$$$$$$$$$+%%%%%%%%%%%%@%%%%%%%.                                            ",
"             .#$$$$$$$$$$$$$$$$$$$@%%%%%%%%%%%%#%%%%%%%.                                            ",
"            .$$$$$$$$$$$$$$$$$$$$@%%%%%%%%%%%%%%%%%%%%%+                                            ",
"           .+$$$$$$$$$$$$$$$$$$$$+%%%%%%%%%%%%%%$%%%%%%@                                            ",
"           #$$$$$$$$$$$$$$$$$$$$#+%%%%%%%%%%%%%%#%%%%%%#.                                           ",
"          .$$$$$$$$$$$$$$$$$$$$$@+%%%%%%%%%%%%%%#%%%%%%#.                                           ",
"          #$$$$$$$$$$$$$$$$$$$$$@@%%%%%%%%%%%%%%#%%%%%%#.                                           ",
"        .+$$$$$$$$$$$$$$$$$$$$$$+#%%%%%%%%%%%%%%$%%%%%%@                                            ",
"        .$$$$$$$$$$$$$$$$$$$$$$$+#%%%%%%%%%%%%%%%%%%%%%+                                            ",
"        $$$$$$$$$$$$$$$$$$$$$$$$+#%%%%%%%%%%%%%@%%%%%%%.                                            ",
"       .$$$$$$$$$$$$$$$$$$$$$$$$+#%%%%%%%%%%%%%+%%%%%%%.                                            ",
"      .#$$$$$$$$$$$$$$$$$$$$$$$$@+%%%%%%%%%%%%#+%%%%%%%                                             ",
"      @$$$$$$$$$$$$$$$$$$$$$$$$$#+%%%%%%%%%%%%@@%%%%%%#                                             ",
"     .$$$$$$$$$$$$$$$$$$$$$$$$$$$+%%%%%##%%%%%+%%%%%%%.                                             ",
"     +$$$$$$$$$$$$$$$$$$$$$$$$$$$$%%%%...+%%%@%@..@%%$                                              ",
"    .#$$$$$$$$$$$$$$$$$$$$$$$$$$$$@%%$....$%%+@....#%+      ..+++.                                  ",
"    #$$$$$$$$$$$$$$$$$$$$$$$$$$$$$@+%+....%%+%.....@.    .@$$$$$$$$@                                ",
"    $$$$$$$$$$$$$$$$$$$$$$$$$$$$$$$+%+....%+@%.....@   .+$$$$$$$$$$$.                               ",
"   .$$$$$$$$$$$$$$$$$$$$$$$$$$$$$$$$+....++$@@.....&.+$$$$$$$$$$$$$$$.                              ",
"   .$$$$$$$$$$$$$$$$$$$$$$$$$$$$$$$$$#...@#$$+.....+#$$$$$$$$$$$$$$$$+.                             ",
"   #$$$$$$$$$$$$$$$$$$$$$$$$$$$$$$$$$$$$$$$$$$$$$$$$$$$$$$$$$$$$$$$$$$#                             ",
"  .$$$$$$$$$$$$$$$$$$$$$$$$$$$$$$$$$$$$$$$$$$$$$$$$$$$$$$$$$$$$$$$$$$$$.                            ",
"  .$$$$$$$$$$$$$$$$$$$$$$$$$$$$$$$$$$$$$$$$$$$$$$$$$$$$$$$$$$$$$$$$$$$$+                            ",
"  +$$$$$$$$$$$$$$$$$$$$$$$$$$$$$$$$$$$$$$$$$$$$$$$$$$$$$$$$$$$$$$$$$$$$$.                           ",
" .@$$$$$$$$$$$$$$$$$$$$$$$$$$$$$$$$$$$$$$$$$$$$$$$$$$$$$$$$$$$$$$$$$$$$$+                           ",
" .$$$$$$$$$$$$$$$$$$$$$$$$$$$$$$$$$$$$$$$$$$$$$$$$$$$$$$$$$$$$$$$$$$$$$$#                           ",
" +$$$$$$$$$$$$$$$$$$$$$$$$$$$$$$$$$$$$$$$$$$$$$$$$$$$$$$$$$$$$$$$$$$$$$$$                           ",
" @$$$$$$$$$$$$$$$$$$$$$$$$$$$$$$$$$$$$$$$$$$$$$$$$$$$$$$$$$$$$$$$$$$$$$$$                           ",
" $$$$$$$$$$$$$$$$$$$$$$$$$$$$$$$$$$$$$$$$$$$$$$$$$$$$$$$$$$$$$$$$$$$$$$$$                           ",
" $$$$$$$$$$$$$$$$$$$$$$$$$$$$$$$$$$$$$$$$$$$$$$$$$$$$$$$$$$$$$$$$$$$$$$$#                           ",
" $$$$$$$$$$$$$$$$$$$$$$$$$$$$$$$$$$$$$$$$$$$$$$$$$$$$$$$$$$$$$$$$$$$$$$$@                           ",
".$$$$$$$$$$$$$$$$$$$$$$$$$$$$$$$$$$$$$$$$$$$$$$$$$$$$$$$$$$$$$$$$$$$$$$$+                           ",
".$$$$$$$$$$$$$$$$$$$$$$$$$$$$$$$$$$$$$$$$$$$$$$$$$$$$$$$$$$$$$$$$$$$$$$#.                           ",
".$$$$$$$$$$$$$$$$$$$$$$$$$$$$$$$$$$$$$$$$$$$$$$$$$$$$$$$$$$$$$$$$$$$$$$@                            ",
".$$$$$$$$$$$$$$$$$$$$$$$$$$$$$$$$$$$$$$$$$$$$$$$$$$$$$$$$$$$$$$$$$$$$$$.                            ",
".$$$$$$$$$$$$$$$$$$$$$$$$$$$$$$$$$$$$$$$$$$$$$$$$$$$$$$$$$$$$$$$$$$$$$@                             ",
".$$$$$$$$$$$$$$$$$$$$$$$$$$$$$$$$$$$$$$$$$$$$$$$$$$$$$$$$$$$$$$$$$$$$#.                             ",
".$$$$$$$$$$$$$$$$$$$$$$$$$$$$$$$$$$$$$$$$$$$$$$$$$$$$$$$$$$$$$$$$$$$$.                              ",
".$$$$$$$$$$$$$$$$$$$$$$$$$$$$$$$$$$$$$$$$$$$$$$$$$$$$$$$$$$$$$$$$$$$$                               ",
".$$$$$$$$$$$$$$$$$$$$$$$$$$$$$$$$$$$$$$$$$$$$$$$$$$$$$$$$$$$$$$$$$$$.                               ",
".$$$$$$$$$$$$$$$$$$$$$$$$$$$$$$$$$$$$$$$$$$$$$$$$$$$$$$$$$$$$$$$$$#.                                ",
".$$$$$$$$$$$$$$$$$$$$$$$$$$$$$$$$$$$$$$$$$$$$$$$$$$$$$$$$$$$$$$$$$.                                 ",
".$$$$$$$$$$$$$$$$$$$$$$$$$$$$$$$$$$$$$$$$$$$$$$$$$$$$$$$$$$$$$$$#.                                  ",
" $$$$$$$$$$$$$$$$$$$$$$$$$$$$$$$$$$$$$$$$$$$$$$$$$$$$$$$$$$$$$$$.                                   ",
" $$$$$$$$$$$$$$$$$$$$$$$$$$$$$$$$$$#.$$$$$$$$$$$$$$$$$$$$$$$$$..                                    ",
" $$$$$$$$$$$$$$$$$$$$$$$$$$$$@$$$$$++@$$$$$$$$$$$$$$$$$$$$$$$@                                      ",
" #$$$$$$$$$$$$$$$$$$$$$$$$$$$@+$$$+#$@#$$$$$$$$$$$$$$$$$$$$+.                                       ",
" +$$$$$$$$$$$$$$$$$$$$$$$$$$$$$++@$$$$@@$$$$$$$$$$$$$$$$#..                                         ",
" .$$$$$$$$$$$$$$$$$$$$$$$$$$$$$$$$$$$$$++#$$$$$$$$$$$$#+.                                           ",
" .#$$$$$$$$$$$$$$$$$$$$$$$$$$$$$$$$$$$$$$$#+...+.....                                               ",
"  @$$$$$$$$$$$$$$$$$$$$$$$$$$$$$$$$$$$$$$$$$$$###@                                                  ",
"  .$$$$$$$$$$$$$$$$$$$$$$#$$$$$$$$$$$$$$$$$$$$$$$$#+                                                ",
"  .$$$$$$$$$$$$$$$$$$$$$$.$$$$$$$$$$$$$$$$$$$$$$$$$#.                                               ",
"   $$$$$$$$$$$$$$$$$$$$$$#$$$$$$$$$$$$$$$$$$$$$$$$$$$$.                                             ",
"   +$$$$$$$$$$$$$$$$$$$$+$$$$$$$$$$$$$$$$$$$$$$$$$$$$$$#+                                           ",
"   .$$$$$$$$$$$$$$$$$$$$+$$$$$$$$$$$$$$$$$$$$$$$$$$$$$$$$+.                                         ",
"    $$$$$$$$$$$$$$$$$$#+$$$$$$$$$$$$$$$$$$$$$$$$$$$$$$$$$$$@.                                       ",
"    #$$$$$$$$$$$$$+@$$..$$$$$$$$$$$$$$$$$$$$$$$$$$$$$$$$$$$$#.                                      ",
"    .$$$$$$$$$$$$$$$#$$$#$$$$$$$$$$$$$$$$$$$$$$$$$$$$$$$$$$$$.                                      ",
"    .@$$$$$$$$$$$$$$$$$$+$$$$$$$$$$$$$$$$$$$$$$$$$$$$$$$$$$$+.                                      ",
"     .$$$$$$$$$$$$$$$$$$@$$$$$$$$$$$$$$$$$$$$$$$$$$$$$$$$$$++                                       ",
"      #$$$$$$$$$$$$$$$$$$+#$$$$$$$$$$$$$$$$$$$$$$$$$$$$$$$##.                                       ",
"      +$$$$$$$$$$$$$$$$$$@+$$$$$$$$$$$$$$$$$$$$$$$$$$$$$$$+$.                                       ",
"       +$$$$$$$$$$$$$$$$$$#$$$$$$$$$$$$$$$$$$$$$$$$$$$$$$+#$$#.                                     ",
"       .$$$$$$$$$$$$$$$$$$$@$$$$$$$$$$$$$$$$$$$$$$$$$$$$$#$$$$#+                                    ",
"        +$$$$$$$$$$$$$$$$$$#+$$$$$$$$$$$$$$$$$$$$$$$$$$+@$$$$$$$$#..                                ",
"        .#$$$$$$$$$$$$$$$$$$@$$$$$$$$$$$$$$$$$$$$$$$$$$+$$$$$$$$$$$@.                               ",
"         .$$$$$$$$$$$$$$$$$$$.@$$$$$$$$$$$$$$$$$$$$$$$+$$$$$$$$$$$$$$$$@+..                         ",
"          .$$$$$$$$$$$$$$$$$$$##$$$$$$$$$$$$$$$$$$$$@.$$$$$$$$$$$$$$$$$$$$$$##++..............++@## ",
"          .$$$$$$$$$$$$$$$$$$$$+$$$$$$$$$$$$$$$$$$$$+#$$$$$$$$$$$$$$$$$$$$$$$$$$$$###@@@@###$$$$$$+ ",
"           .#$$$$$$$$$$$$$$$$$$$+@$$$$$$$$$$$$$$$$++$$$$$$$$$$$$$$$$$$$$$$$$$$$$$$$$$$$$$$$$$$$$$.  ",
"            .$$$$$$$$$$$$$$$$$$$#+#$$$$$$$$$$$$$$@@$$$$$$$$$$$$$$$$$$$$$$$$$$$$$$$$$$$$$$$$$$$$$#   ",
"             +$$$$$$$$$$$$$$$$$$$$#+#$$$$$$$$$#+@$$$$$$$$$$$$$$$$$$$$$$$$$$$$$$$$$$$$$$$$$$$$$$$.   ",
"             .+$$$$$$$$$$$$$$$$$$$$$++#$$$$$$@+@$$$$$$$$$$$$$$$$$$$$$$$$$$$$$$$$$$$$$$$$$$$$$$$+    ",
"               @$$$$$$$$$$$$$$$$$$$$$$$#@@@#$$$$$$$$$$$$$$$$$$$$$$$$$$$$$$$$$$$$$$$$$$$$$$$$$$.     ",
"                .$$$$$$$$$$$$$$$$$$$$$$$$$$$$$$$$$$$$$$$$$$$$$$$$$$$$$$$$$$$$$$$$$$$$$$$$$$$@.      ",
"                 @$$$$$$$$$$$$$$$$$$$$$$$$$$$$$$$$$$$$$$$$$$$$$$$$$$$$$$$$$$$$$$$$$$$$$$$$$$.       ",
"                  +$$$$$$$$$$$$$$$$$$$$$$$$$$$$$$$$$$$$$$$$$$$$$$$$$$$$$$$$$$$$$$$$$$$$$$$+.        ",
"                  .+$$$$$$$$$$$$$$$$$$$$$$$$$$$$$$$$$$$$$$$$$$$$$$$$$$$$$$$$$$$$$$$$$$$$$#.         ",
"                    .#$$$$$$$$$$$$$$$$$$$$$$$$$$$$$$$$$$$$$$$$$$$$$$$$$$$$$$$$$$$$$$$$$$#           ",
"                     .$$$$$$$$$$$$$$$$$$$$$$$$$$$$$$$$$$$$$$$$$$$$$$$$$$$$$$$$$$$$$$$$$@.           ",
"                       .$$$$$$$$$$$$$$$$$$$$$$$$$$$$$$$$$$$$$$$$$$$$$$$$$$$$$$$$$$$$$@.             ",
"                        .#$$$$$$$$$$$$$$$$$$$$$$$$$$$$$$$$$$$$$$$$$$$$$$$$$$$$$$$$$@.               ",
"                         .+$$$$$$$$$$$$$$$$$$$$$$$$$$$$$$$$$$$$$$$$$$$$$$$$$$$$$$$#.                ",
"                           ..$$$$$$$$$$$$$$$$$$$$$$$$$$$$$$$$$$$$$$$$$$$$$$$$$$$@.                  ",
"                             .@$$$$$$$$$$$$$$$$$$$$$$$$$$$$$$$$$$$$$$$$$$$$$$$$@.                   ",
"                               .@$$$$$$$$$$$$$$$$$$$$$$$$$$$$$$$$$$$$$$$$$$$@.                      ",
"                                ..#$$$$$$$$$$$$$$$$$$$$$$$$$$$$$$$$$$$$$$$$@.                       ",
"                                    .+#$$$$$$$$$$$$$$$$$$$$$$$$$$$$$$$$@+.                          ",
"                                       ..+@$$$$$$$$$$$$$$$$$$$$$$$#@..                              ",
"                                          ..+@$$$$$$$$$$$$$$$$$#@+..                                ",
"                                                  ..........                                        "};
