/* XPM */
static xpm_string_t N_xpm[] = {
"29 29 3 1",
" 	c #000000",
".	c #FF00F0",
"+	c #111111",
"      .................      ",
"      .................      ",
"      .................      ",
"      .................      ",
"      .................      ",
"      .................      ",
"            ...........      ",
"            ...........      ",
"            ...........      ",
"            ...........      ",
"            ...........      ",
"      .....+      .....      ",
"      ......      .....      ",
"      ......      .....      ",
"      ......      .....      ",
"      ......      .....      ",
"      ......      .....      ",
"      ...........            ",
"      ...........            ",
"      ...........            ",
"      ...........            ",
"      ...........            ",
"      ...........            ",
"      .................      ",
"      .................      ",
"      .................      ",
"      .................      ",
"      .................      ",
"      .................      "};
