/* XPM */
static xpm_string_t Q_xpm[] = {
"29 29 2 1",
" 	c #FF00F0",
".	c #000000",
"      ............           ",
"      ............           ",
"      ............           ",
"      ............           ",
"      ............           ",
"      ............           ",
"......            ......     ",
"......            ......     ",
"......            ......     ",
"......            ......     ",
"......            ......     ",
"......     .............     ",
"......     .............     ",
"......     .............     ",
"......     .............     ",
"......     .............     ",
"......     .............     ",
"......            ......     ",
"......            ......     ",
"......            ......     ",
"......            ......     ",
"......            ......     ",
"......            ......     ",
"      ............      .....",
"      ............      .....",
"      ............      .....",
"      ............      .....",
"      ............      .....",
"      ............      ....."};
