/* XPM */
static xpm_string_t S_xpm[] = {
"29 29 2 1",
" 	c #FF00F0",
".	c #000000",
"      .......................",
"      .......................",
"      .......................",
"      .......................",
"      .......................",
"      .......................",
"......                       ",
"......                       ",
"......                       ",
"......                       ",
"......                       ",
"      .................      ",
"      .................      ",
"      .................      ",
"      .................      ",
"      .................      ",
"      .................      ",
"                       ......",
"                       ......",
"                       ......",
"                       ......",
"                       ......",
"                       ......",
".......................      ",
".......................      ",
".......................      ",
".......................      ",
".......................      ",
".......................      "};
