/* XPM */
static xpm_string_t score_xpm[] = {
"192 32 3 1",
" 	c #FF00F0",
".	c #000000",
"+	c #111111",
"                                                                                                                                                                                                ",
"                                                                                                                                                                                                ",
"        ......................            .................                 .................            .......................           ............................            ...........  ",
"        ......................            .................                 .................            .......................           ............................            ...........  ",
"        ......................            .................                 .................            .......................           ............................            ...........  ",
"        ......................            .................                 .................            .......................           ............................            ...........  ",
"        ......................            .................                 .................            .......................           ............................            ...........  ",
"        ......................            .................                 .................            .......................           ............................            ...........  ",
"  ......                            ......                 ......     ......                 ......      .....                 ......      ......                                  ...........  ",
"  ......                            ......                 ......     ......                 ......      .....                 ......      ......                                  ...........  ",
"  ......                            ......                 ......     ......                 ......      .....                 ......      ......                                  ...........  ",
"  ......                            ......                 ......     ......                 ......      .....                 ......      ......                                  ...........  ",
"  ......                            ......                 ......     ......                 ......      .....                 ......      ......                                  ...........  ",
"       +.................           ......                            ......                 ......      .......................           .......................                              ",
"        .................           ......                            ......                 ......      .......................           .......................                              ",
"        .................           ......                            ......                 ......      .......................           .......................                              ",
"        .................           ......                            ......                 ......      .......................           .......................                              ",
"        .................           ......                            ......                 ......      .......................           .......................                              ",
"        .................           ......                            ......                 ......      .......................           .......................                              ",
"                         .....      ......                 ......     ......                 ......      .....                 ......      ......                                  ...........  ",
"                         .....      ......                 ......     ......                 ......      .....                 ......      ......                                  ...........  ",
"                         .....      ......                 ......     ......                 ......      .....                 ......      ......                                  ...........  ",
"                         .....      ......                 ......     ......                 ......      .....                 ......      ......                                  ...........  ",
"                         .....      ......                 ......     ......                 ......      .....                 ......      ......                                  ...........  ",
"                         .....      ......                 ......     ......                 ......      .....                 ......      ......                                  ...........  ",
"  .......................                 .................                 .................            .....                 ......      ............................            ...........  ",
"  .......................                 .................                 .................            .....                 ......      ............................            ...........  ",
"  .......................                 .................                 .................            .....                 ......      ............................            ...........  ",
"  .......................                 .................                 .................            .....                 ......      ............................            ...........  ",
"  .......................                 .................                 .................            .....                 ......      ............................            ...........  ",
"  .......................                 .................                 .................            .....                 ......      ............................            ...........  ",
"                                                                                                                                                                                                "};
