/* XPM */
static xpm_string_t seven_xpm[] = {
"30 30 2 1",
" 	c #FF00F0",
".	c #000000",
"                              ",
" ............................ ",
" ............................ ",
" ............................ ",
" ............................ ",
" ............................ ",
" ............................ ",
"                        ..... ",
"                        ..... ",
"                        ..... ",
"                        ..... ",
"                        ..... ",
"                  ......      ",
"                  ......      ",
"                  ......      ",
"                  ......      ",
"                  ......      ",
"                  ......      ",
"            ......            ",
"            ......            ",
"            ......            ",
"            ......            ",
"            ......            ",
"            ......            ",
"            ......            ",
"            ......            ",
"            ......            ",
"            ......            ",
"            ......            ",
"            ......            "};
