/* XPM */
static xpm_string_t spike_xpm[] = {
"25 43 139 2",
"  	c #FF00F0",
". 	c #070107",
"+ 	c #040104",
"@ 	c #000101",
"# 	c #000000",
"$ 	c #20051E",
"% 	c #0D070D",
"& 	c #000800",
"* 	c #000300",
"= 	c #151215",
"- 	c #1C1C1C",
"; 	c #050D05",
"> 	c #949495",
", 	c #DFDFE0",
"' 	c #0B0B0B",
") 	c #1E1F1F",
"! 	c #DCDCDD",
"~ 	c #4E4E4E",
"{ 	c #3C3D3E",
"] 	c #DDDEDF",
"^ 	c #8E8E8E",
"/ 	c #5B5C5D",
"( 	c #DEDFE0",
"_ 	c #C7C7C7",
": 	c #110810",
"< 	c #030303",
"[ 	c #7B7C7D",
"} 	c #DEDEE0",
"| 	c #DEDEDD",
"1 	c #131313",
"2 	c #020102",
"3 	c #000500",
"4 	c #070707",
"5 	c #9C9D9F",
"6 	c #DEDEDF",
"7 	c #F0F0F0",
"8 	c #2E2E2E",
"9 	c #BBBDBF",
"0 	c #FFFFFF",
"a 	c #494949",
"b 	c #333335",
"c 	c #C1C3C5",
"d 	c #EFEFF0",
"e 	c #797979",
"f 	c #0C100C",
"g 	c #6A6B6C",
"h 	c #BEC0C2",
"i 	c #E5E7E7",
"j 	c #B4B4B4",
"k 	c #A1A2A4",
"l 	c #DDDDDF",
"m 	c #EEEEEE",
"n 	c #020303",
"o 	c #C3C5C7",
"p 	c #B9BBBD",
"q 	c #060606",
"r 	c #313132",
"s 	c #BFC1C3",
"t 	c #AAAAAA",
"u 	c #0E040D",
"v 	c #5E6061",
"w 	c #BDBFC1",
"x 	c #DDDDDE",
"y 	c #ABABAB",
"z 	c #8B8D8E",
"A 	c #BBBCBF",
"B 	c #ECEDED",
"C 	c #6E6F70",
"D 	c #C2C4C6",
"E 	c #C0C2C4",
"F 	c #FDFDFD",
"G 	c #FBFBFB",
"H 	c #202020",
"I 	c #010101",
"J 	c #7A7B7C",
"K 	c #E2E3E3",
"L 	c #525252",
"M 	c #212122",
"N 	c #9FA1A2",
"O 	c #B8BBBD",
"P 	c #838383",
"Q 	c #545456",
"R 	c #ACACAC",
"S 	c #040404",
"T 	c #120611",
"U 	c #080B08",
"V 	c #1C1D1D",
"W 	c #9EA0A1",
"X 	c #DADADB",
"Y 	c #CFCFCF",
"Z 	c #0E0E0E",
"` 	c #0B0C0C",
" .	c #7F8081",
"..	c #BCBEC0",
"+.	c #F3F3F3",
"@.	c #181818",
"#.	c #535455",
"$.	c #A6A8AA",
"%.	c #C6C8CA",
"&.	c #343434",
"*.	c #383839",
"=.	c #C5C8CA",
"-.	c #7B7B7B",
";.	c #000400",
">.	c #818384",
",.	c #CCCED0",
"'.	c #C7C9CB",
").	c #C4C7C9",
"!.	c #EBEBED",
"~.	c #D1D1D1",
"{.	c #000200",
"].	c #010001",
"^.	c #9A9B9B",
"/.	c #FBFCFD",
"(.	c #FCFCFD",
"_.	c #FCFDFE",
":.	c #B9B9BA",
"<.	c #727375",
"[.	c #BABCBE",
"}.	c #A8AAAC",
"|.	c #898A8C",
"1.	c #6B6C6E",
"2.	c #B4B6B8",
"3.	c #AFB1B3",
"4.	c #B0B1B4",
"5.	c #848588",
"6.	c #7F8083",
"7.	c #87888B",
"8.	c #A8A8AC",
"9.	c #B0B2B4",
"0.	c #B2B4B6",
"a.	c #808184",
"b.	c #343536",
"c.	c #58595B",
"d.	c #555658",
"e.	c #565759",
"f.	c #57585A",
"g.	c #3F3F41",
"h.	c #020202",
"                        .                         ",
"                        +                         ",
"                        @                         ",
"                        #                         ",
"                        # $                       ",
"                        # %                       ",
"                      & # *                       ",
"                      # # #                       ",
"                      # # #                       ",
"                    = # - # ;                     ",
"                    # # > # #                     ",
"                    # # , ' #                     ",
"                    # ) ! ~ #                     ",
"                    # { ] ^ # #                   ",
"                    # / ( _ # +                   ",
"                  : < [ } | 1 2                   ",
"                  3 4 5 6 7 8 #                   ",
"                  # ' 9 6 0 a #                   ",
"                  # b c d 0 e #                   ",
"                f # g h i 0 j # #                 ",
"                # # k 9 l 0 m # #                 ",
"                # n o p ] 0 0 q #                 ",
"                # r s p ] 0 t - #                 ",
"              u # v w p x 0 0 y # #               ",
"              . # z 9 A B 0 0 7 # #               ",
"              # # C D E F 0 0 G H #               ",
"              # I # J w K 0 0 F L #               ",
"              # M N h O x 0 0 0 P # #             ",
"              # Q c 9 p ] 0 0 0 R S T             ",
"            U # V W h p X 0 0 0 Y Z S             ",
"            # # # `  .s ..G 0 0 +.@.#             ",
"            # I ' #.$...%.0 0 0 0 &.#             ",
"            # *.=.o w O , 0 0 0 0 -.# #           ",
"          ;.# >.,.'.'.).!.0 0 0 0 ~.# {.          ",
"          # I # # # # # # # # # # # I #           ",
"# # # # # # # # # # # # # # # # # # # ].# # # # # ",
"# # # # # # # # # # # # # # # # # # # # # # # # # ",
"# # ^.0 /./././././././././.(._./././././.0 :.# # ",
"# # <.s [.[.[.[.[.[.[.[.[.9 p }...9 [.[.[.w |.# # ",
"# # 1.2.3.3.3.3.3.3.3.3.4.$.5.6.7.8.9.3.3.0.a.# # ",
"# # b.c.d.d.d.d.d.d.d.d.d.e.c.c.c.e.d.d.d.f.g.# # ",
"# # I h.h.h.h.h.h.h.h.h.h.h.h.h.h.h.h.h.h.h.h.# # ",
"# # # # # # # # # # # # # # # # # # # # # # # # # "};
