/* XPM */
static xpm_string_t two_xpm[] = {
"30 30 3 1",
" 	c #FF00F0",
".	c #000000",
"+	c #111111",
"                              ",
"      .................       ",
"      .................       ",
"      .................       ",
"      .................       ",
"      .................       ",
"      .................       ",
"......                 ...... ",
"......                 ...... ",
"......                 ...... ",
"......                 ...... ",
"......                 ...... ",
"            ...........+      ",
"            ...........       ",
"            ...........       ",
"            ...........       ",
"            ...........       ",
"            ...........       ",
"      ......                  ",
"      ......                  ",
"      ......                  ",
"      ......                  ",
"      ......                  ",
"      ......                  ",
"............................. ",
"............................. ",
"............................. ",
"............................. ",
"............................. ",
"............................. "};
